<svg xmlns="http://www.w3.org/2000/svg" xmlns:xlink="http://www.w3.org/1999/xlink" viewBox="0 0 430 430" width="430" height="430" preserveAspectRatio="xMidYMid meet" style="width: 100%; height: 100%; transform: translate3d(0px, 0px, 0px); content-visibility: visible;"><defs><clipPath id="__lottie_element_2596"><rect width="430" height="430" x="0" y="0"/></clipPath><clipPath id="__lottie_element_2598"><path d="M0,0 L430,0 L430,430 L0,430z"/></clipPath><filter id="__lottie_element_2604" x="-100%" y="-100%" width="300%" height="300%"><feGaussianBlur result="filter_result_0" stdDeviation="52.5 52.5" edgeMode="wrap"/></filter><g id="__lottie_element_2605"><g clip-path="url(#__lottie_element_2606)" transform="matrix(1,0,0,1,0,0)" opacity="1" style="display: block;"><g transform="matrix(0.4488115906715393,-0.42774778604507446,0.42774778604507446,0.4488115906715393,280.0006408691406,190.99839782714844)" opacity="1" style="display: block;"><g opacity="1" transform="matrix(1,0,0,1,0,0)"><path stroke-linecap="butt" stroke-linejoin="round" fill-opacity="0" class="secondary" stroke="rgb(8,168,138)" stroke-opacity="1" stroke-width="19.4" d=" M-13.503777503967285,-0.007232990115880966 C-13.503777503967285,-17.9548397064209 -28.054777145385742,-32.50470733642578 -46.00377655029297,-32.50470733642578 C-46.00377655029297,-32.50470733642578 -46.76177215576172,-32.50470733642578 -46.76177215576172,-32.50470733642578 C-64.71076965332031,-32.50470733642578 -79.26177215576172,-17.9548397064209 -79.26177215576172,-0.007232990115880966 C-79.26177215576172,17.940372467041016 -64.71076965332031,32.490234375 -46.76177215576172,32.490234375 C-46.76177215576172,32.490234375 -46.00377655029297,32.490234375 -46.00377655029297,32.490234375 C-28.054777145385742,32.490234375 -13.503777503967285,17.940372467041016 -13.503777503967285,-0.007232990115880966z"/></g></g><g transform="matrix(0.42774778604507446,0.4488115906715393,-0.4488115906715393,0.42774778604507446,235.288330078125,281.2027893066406)" opacity="1" style="display: block;"><g opacity="1" transform="matrix(1,0,0,1,0,0)"><path stroke-linecap="butt" stroke-linejoin="round" fill-opacity="0" class="secondary" stroke="rgb(8,168,138)" stroke-opacity="1" stroke-width="19.4" d=" M-13.503777503967285,0.002354488940909505 C-13.503777503967285,-17.946645736694336 -28.054777145385742,-32.49764633178711 -46.00377655029297,-32.49764633178711 C-46.00377655029297,-32.49764633178711 -46.76177215576172,-32.49764633178711 -46.76177215576172,-32.49764633178711 C-64.71076965332031,-32.49764633178711 -79.26177215576172,-17.946645736694336 -79.26177215576172,0.002354488940909505 C-79.26177215576172,17.95135498046875 -64.71076965332031,32.50235366821289 -46.76177215576172,32.50235366821289 C-46.76177215576172,32.50235366821289 -46.00377655029297,32.50235366821289 -46.00377655029297,32.50235366821289 C-28.054777145385742,32.50235366821289 -13.503777503967285,17.95135498046875 -13.503777503967285,0.002354488940909505z"/></g></g><g transform="matrix(-0.4488115906715393,0.42774778604507446,-0.42774778604507446,-0.4488115906715393,148.71209716796875,232.68743896484375)" opacity="1" style="display: block;"><g opacity="1" transform="matrix(1,0,0,1,0,0)"><path stroke-linecap="butt" stroke-linejoin="round" fill-opacity="0" class="secondary" stroke="rgb(8,168,138)" stroke-opacity="1" stroke-width="19.4" d=" M-13.48820972442627,0.00015068729408085346 C-13.48820972442627,-17.946334838867188 -28.039209365844727,-32.49529266357422 -45.98820877075195,-32.49529266357422 C-45.98820877075195,-32.49529266357422 -46.75,-32.49529266357422 -46.75,-32.49529266357422 C-64.6989974975586,-32.49529266357422 -79.25,-17.946334838867188 -79.25,0.00015068729408085346 C-79.25,17.946636199951172 -64.6989974975586,32.4955940246582 -46.75,32.4955940246582 C-46.75,32.4955940246582 -45.98820877075195,32.4955940246582 -45.98820877075195,32.4955940246582 C-28.039209365844727,32.4955940246582 -13.48820972442627,17.946636199951172 -13.48820972442627,0.00015068729408085346z"/></g></g><g transform="matrix(-0.42774778604507446,-0.4488115906715393,0.4488115906715393,-0.42774778604507446,193.24395751953125,142.65586853027344)" opacity="1" style="display: block;"><g opacity="1" transform="matrix(1,0,0,1,0,0)"><path stroke-linecap="butt" stroke-linejoin="round" fill-opacity="0" class="secondary" stroke="rgb(8,168,138)" stroke-opacity="1" stroke-width="19.4" d=" M-13.499332427978516,-0.008240710943937302 C-13.499332427978516,-17.95724105834961 -28.05033302307129,-32.50444412231445 -45.999332427978516,-32.50444412231445 C-45.999332427978516,-32.50444412231445 -46.75353240966797,-32.50444412231445 -46.75353240966797,-32.50444412231445 C-64.70252990722656,-32.50444412231445 -79.25353240966797,-17.95724105834961 -79.25353240966797,-0.008240710943937302 C-79.25353240966797,17.940759658813477 -64.70252990722656,32.49176025390625 -46.75353240966797,32.49176025390625 C-46.75353240966797,32.49176025390625 -45.999332427978516,32.49176025390625 -45.999332427978516,32.49176025390625 C-28.05033302307129,32.49176025390625 -13.499332427978516,17.940759658813477 -13.499332427978516,-0.008240710943937302z"/></g></g><g transform="matrix(0.6200000047683716,0,0,0.6200000047683716,119.9000015258789,250.4499969482422)" opacity="1" style="display: none;"><g opacity="1" transform="matrix(1,0,0,1,0,0)"><path stroke-linecap="butt" stroke-linejoin="round" fill-opacity="0" class="secondary" stroke="rgb(8,168,138)" stroke-opacity="1" stroke-width="19.4" d=" M33,-32.75 C33,-32.88800048828125 32.88800048828125,-33 32.75,-33 C32.61199951171875,-33 32.5,-32.88800048828125 32.5,-32.75 C32.5,-32.75 32.5,-32.5 32.5,-32.5 C32.5,-32.5 32.75,-32.5 32.75,-32.5 C32.88800048828125,-32.5 33,-32.61199951171875 33,-32.75z"/></g></g><g transform="matrix(-0.6200000047683716,0,0,-0.6200000047683716,315.3500061035156,180.0500030517578)" opacity="1" style="display: none;"><g opacity="1" transform="matrix(1,0,0,1,0,0)"><path stroke-linecap="butt" stroke-linejoin="round" fill-opacity="0" class="secondary" stroke="rgb(8,168,138)" stroke-opacity="1" stroke-width="19.4" d=" M33,-32.75 C33,-32.88800048828125 32.88800048828125,-33 32.75,-33 C32.61199951171875,-33 32.5,-32.88800048828125 32.5,-32.75 C32.5,-32.75 32.5,-32.5 32.5,-32.5 C32.5,-32.5 32.75,-32.5 32.75,-32.5 C32.88800048828125,-32.5 33,-32.61199951171875 33,-32.75z"/></g></g><g transform="matrix(0,-0.6200000047683716,0.6200000047683716,0,250.3249969482422,310.3500061035156)" opacity="1" style="display: none;"><g opacity="1" transform="matrix(1,0,0,1,0,0)"><path stroke-linecap="butt" stroke-linejoin="round" fill-opacity="0" class="secondary" stroke="rgb(8,168,138)" stroke-opacity="1" stroke-width="19.4" d=" M33,-32.75 C33,-32.88800048828125 32.88800048828125,-33 32.75,-33 C32.61199951171875,-33 32.5,-32.88800048828125 32.5,-32.75 C32.5,-32.75 32.5,-32.5 32.5,-32.5 C32.5,-32.5 32.75,-32.5 32.75,-32.5 C32.88800048828125,-32.5 33,-32.61199951171875 33,-32.75z"/></g></g><g transform="matrix(0,0.6200000047683716,-0.6200000047683716,0,184.8000030517578,119.9000015258789)" opacity="1" style="display: none;"><g opacity="1" transform="matrix(1,0,0,1,0,0)"><path stroke-linecap="butt" stroke-linejoin="round" fill-opacity="0" class="secondary" stroke="rgb(8,168,138)" stroke-opacity="1" stroke-width="19.4" d=" M33,-32.75 C33,-32.88800048828125 32.88800048828125,-33 32.75,-33 C32.61199951171875,-33 32.5,-32.88800048828125 32.5,-32.75 C32.5,-32.75 32.5,-32.5 32.5,-32.5 C32.5,-32.5 32.75,-32.5 32.75,-32.5 C32.88800048828125,-32.5 33,-32.61199951171875 33,-32.75z"/></g></g><g transform="matrix(0.6366015672683716,-0.6366015672683716,0.6366015672683716,0.6366015672683716,215,215)" opacity="1" style="display: block;"><g opacity="1" transform="matrix(1,0,0,1,0,0)"><path stroke-linecap="round" stroke-linejoin="round" fill-opacity="0" class="primary" stroke="rgb(18,19,49)" stroke-opacity="1" stroke-width="12" d=" M0,-167.5 C92.44325256347656,-167.5 167.5,-92.44325256347656 167.5,0 C167.5,92.44325256347656 92.44325256347656,167.5 0,167.5 C-92.44325256347656,167.5 -167.5,92.44325256347656 -167.5,0 C-167.5,-92.44325256347656 -92.44325256347656,-167.5 0,-167.5z"/></g></g></g></g><clipPath id="__lottie_element_2606"><path d="M0,0 L430,0 L430,430 L0,430z"/></clipPath><mask id="__lottie_element_2605_1" mask-type="alpha"><use xmlns:ns1="http://www.w3.org/1999/xlink" ns1:href="#__lottie_element_2605"/></mask></defs><g clip-path="url(#__lottie_element_2596)"><g clip-path="url(#__lottie_element_2598)" transform="matrix(1,0,0,1,0,0)" opacity="1" style="display: block;"><g mask="url(#__lottie_element_2605_1)" style="display: block;"><g filter="url(#__lottie_element_2604)" transform="matrix(2.074826717376709,-1.206272840499878,1.206272840499878,2.074826717376709,271.9410095214844,220.4600067138672)" opacity="1"><g class="design" opacity="1" transform="matrix(1,0,0,1,0,0)"><path class="primary" fill="rgb(75,225,236)" fill-opacity="1" d=" M0,-250 C137.97500610351562,-250 250,-137.97500610351562 250,0 C250,137.97500610351562 137.97500610351562,250 0,250 C-137.97500610351562,250 -250,137.97500610351562 -250,0 C-250,-137.97500610351562 -137.97500610351562,-250 0,-250z"/></g><g class="design" opacity="1" transform="matrix(1,0,0,1,113.24199676513672,-118.88400268554688)"><path class="secondary" fill="rgb(203,94,238)" fill-opacity="1" d=" M0,-176.5 C97.47799682617188,-176.5 176.5,-97.47799682617188 176.5,0 C176.5,97.47799682617188 97.47799682617188,176.5 0,176.5 C-43.948001861572266,176.5 -74.39600372314453,142.4429931640625 -105.29000091552734,115.86900329589844 C-142.92100524902344,83.5 -176.5,53.53099822998047 -176.5,0 C-176.5,-97.47799682617188 -97.47799682617188,-176.5 0,-176.5z"/></g></g></g></g></g></svg>