<svg xmlns="http://www.w3.org/2000/svg" width="430" height="430" fill="none" viewBox="0 0 430 430"><g fill-rule="evenodd" clip-rule="evenodd"><path fill="url(#n4rVXscq3wa)" d="M215 44c-44.686 0-81 36.314-81 81s36.314 81 81 81c44.68 0 81-36.203 81-81 0-19.808-7.103-38.028-18.903-52.12l-.016-.018C262.203 55.237 239.972 44 215 44m-69 81c0-38.058 30.942-69 69-69 21.276 0 40.202 9.552 52.904 24.594C277.952 92.599 284 108.108 284 125c0 38.159-30.936 69-69 69-38.058 0-69-30.942-69-69"/><path fill="url(#Eo2KvlauVAb)" d="M170 229c-66.826 0-121 54.174-121 121v25a6 6 0 0 0 6 6h320a6 6 0 0 0 6-6v-25c0-66.826-54.174-121-121-121zM61 350c0-60.199 48.801-109 109-109h90c60.199 0 109 48.801 109 109v19H61z"/></g><defs><linearGradient id="n4rVXscq3wa" x1="97.6901" x2="335.9" y1="93.4089" y2="328.018" gradientUnits="userSpaceOnUse"><stop stop-color="#cb5eee"/><stop offset="1" stop-color="#4be1ec"/></linearGradient><linearGradient id="Eo2KvlauVAb" x1="97.6901" x2="335.9" y1="93.4089" y2="328.018" gradientUnits="userSpaceOnUse"><stop stop-color="#cb5eee"/><stop offset="1" stop-color="#4be1ec"/></linearGradient></defs></svg>