<svg xmlns="http://www.w3.org/2000/svg" xmlns:xlink="http://www.w3.org/1999/xlink" viewBox="0 0 430 430" width="430" height="430" preserveAspectRatio="xMidYMid meet" style="width: 100%; height: 100%; transform: translate3d(0px, 0px, 0px); content-visibility: visible;"><defs><clipPath id="__lottie_element_2359"><rect width="430" height="430" x="0" y="0"/></clipPath><clipPath id="__lottie_element_2361"><path d="M0,0 L430,0 L430,430 L0,430z"/></clipPath><filter id="__lottie_element_2367" x="-100%" y="-100%" width="300%" height="300%"><feGaussianBlur result="filter_result_0" stdDeviation="52.5 52.5" edgeMode="wrap"/></filter><g id="__lottie_element_2368"><g clip-path="url(#__lottie_element_2369)" transform="matrix(1,0,0,1,0,0)" opacity="1" style="display: block;"><g transform="matrix(4,0,0,4,193.078125,228.6576385498047)" opacity="1" style="display: block;"><g opacity="1" transform="matrix(1,0,0,1,-11.125,14.625)"><path stroke-linecap="round" stroke-linejoin="round" fill-opacity="0" class="secondary" stroke="rgb(8,168,138)" stroke-opacity="1" stroke-width="3.08" d=" M4.269000053405762,-33.12300109863281 C19.4689998626709,-31.18000030517578 31.488000869750977,-19.000999450683594 33.1879997253418,-3.7269999980926514"/></g><g opacity="1" transform="matrix(1,0,0,1,-11.125,14.625)"><path stroke-linecap="round" stroke-linejoin="round" fill-opacity="0" class="secondary" stroke="rgb(8,168,138)" stroke-opacity="1" stroke-width="3.08" d=" M6.947000026702881,-44.5890007019043 C26.450000762939453,-41.569000244140625 41.84400177001953,-26.040000915527344 44.65999984741211,-6.4710001945495605"/></g><g opacity="1" transform="matrix(1,0,0,1,-11.125,14.625)"><path stroke-linecap="round" stroke-linejoin="round" fill-opacity="0" class="secondary" stroke="rgb(8,168,138)" stroke-opacity="1" stroke-width="3.08" d=" M10.432999610900879,-52.540000915527344 C31.673999786376953,-48.3380012512207 48.41699981689453,-31.559999465942383 52.566001892089844,-10.300999641418457"/></g></g><g transform="matrix(0.999912679195404,0.013214130885899067,-0.013214130885899067,0.999912679195404,181.078125,256.65765380859375)" opacity="1" style="display: block;"><g opacity="1" transform="matrix(1,0,0,1,0,0)"><path stroke-linecap="round" stroke-linejoin="round" fill-opacity="0" class="primary" stroke="rgb(18,19,49)" stroke-opacity="1" stroke-width="12.32" d=" M-103.92900085449219,-159.52999877929688 C-108.26499938964844,-165.5 -130.41400146484375,-144.55599975585938 -153.35800170898438,-112.79199981689453 C-153.35800170898438,-112.79199981689453 -153.35800170898438,-112.79199981689453 -153.35800170898438,-112.79199981689453 C-176.302001953125,-81.02799987792969 -156.22300720214844,-16.52899932861328 -108.5469970703125,31.14699935913086 C-108.5469970703125,31.14699935913086 -34.25600051879883,105.43800354003906 -34.25600051879883,105.43800354003906 C13.420000076293945,153.11399841308594 77.7249984741211,173 109.2509994506836,149.81700134277344 C109.2509994506836,149.81700134277344 109.2509994506836,149.81700134277344 109.2509994506836,149.81700134277344 C140.77699279785156,126.63400268554688 162.30499267578125,104.84400177001953 157.29200744628906,101.18900299072266 C157.29200744628906,101.18900299072266 157.29200744628906,101.18900299072266 157.29200744628906,101.18900299072266 C152.2790069580078,97.53399658203125 137.11300659179688,86.47599792480469 123.44599914550781,76.51100158691406 C123.44599914550781,76.51100158691406 123.44599914550781,76.51100158691406 123.44599914550781,76.51100158691406 C109.77899932861328,66.5459976196289 95.26899719238281,55.96500015258789 91.06400299072266,52.89899826049805 C91.06400299072266,52.89899826049805 91.06400299072266,52.89899826049805 91.06400299072266,52.89899826049805 C86.85900115966797,49.832000732421875 75.31600189208984,55.47100067138672 65.30400085449219,65.48300170898438 C65.30400085449219,65.48300170898438 65.30400085449219,65.48300170898438 65.30400085449219,65.48300170898438 C55.29199981689453,75.49500274658203 43.486000061035156,79.94599914550781 38.957000732421875,75.41699981689453 C38.957000732421875,75.41699981689453 38.957000732421875,75.41699981689453 38.957000732421875,75.41699981689453 C34.428001403808594,70.88800048828125 8.493000030517578,44.95399856567383 -18.92099952697754,17.540000915527344 C-18.92099952697754,17.540000915527344 -18.92099952697754,17.540000915527344 -18.92099952697754,17.540000915527344 C-46.334999084472656,-9.87399959564209 -73.04399871826172,-36.58300018310547 -78.5270004272461,-42.066001892089844 C-78.5270004272461,-42.066001892089844 -78.5270004272461,-42.066001892089844 -78.5270004272461,-42.066001892089844 C-84.01000213623047,-47.54899978637695 -80.33200073242188,-60.12900161743164 -70.31999969482422,-70.14099884033203 C-70.31999969482422,-70.14099884033203 -70.31999969482422,-70.14099884033203 -70.31999969482422,-70.14099884033203 C-60.30799865722656,-80.15299987792969 -54.95600128173828,-92.1050033569336 -58.375,-96.81300354003906 C-58.375,-96.81300354003906 -58.375,-96.81300354003906 -58.375,-96.81300354003906 C-61.79399871826172,-101.52100372314453 -71.62899780273438,-115.06099700927734 -80.3219985961914,-127.02899932861328 C-80.3219985961914,-127.02899932861328 -80.3219985961914,-127.02899932861328 -80.3219985961914,-127.02899932861328 C-89.01499938964844,-138.9969940185547 -99.59300231933594,-153.55999755859375 -103.92900085449219,-159.52999877929688 C-103.92900085449219,-159.52999877929688 -103.92900085449219,-159.52999877929688 -103.92900085449219,-159.52999877929688z"/></g></g></g></g><clipPath id="__lottie_element_2369"><path d="M0,0 L430,0 L430,430 L0,430z"/></clipPath><mask id="__lottie_element_2368_1" mask-type="alpha"><use xmlns:ns1="http://www.w3.org/1999/xlink" ns1:href="#__lottie_element_2368"/></mask></defs><g clip-path="url(#__lottie_element_2359)"><g clip-path="url(#__lottie_element_2361)" transform="matrix(1,0,0,1,0,0)" opacity="1" style="display: block;"><g mask="url(#__lottie_element_2368_1)" style="display: block;"><g filter="url(#__lottie_element_2367)" transform="matrix(2.2254786491394043,-0.8984680771827698,0.8984680771827698,2.2254786491394043,271.9410095214844,220.4600067138672)" opacity="1"><g class="design" opacity="1" transform="matrix(1,0,0,1,0,0)"><path class="primary" fill="rgb(75,225,236)" fill-opacity="1" d=" M0,-250 C137.97500610351562,-250 250,-137.97500610351562 250,0 C250,137.97500610351562 137.97500610351562,250 0,250 C-137.97500610351562,250 -250,137.97500610351562 -250,0 C-250,-137.97500610351562 -137.97500610351562,-250 0,-250z"/></g><g class="design" opacity="1" transform="matrix(1,0,0,1,113.24199676513672,-118.88400268554688)"><path class="secondary" fill="rgb(203,94,238)" fill-opacity="1" d=" M0,-176.5 C97.47799682617188,-176.5 176.5,-97.47799682617188 176.5,0 C176.5,97.47799682617188 97.47799682617188,176.5 0,176.5 C-43.948001861572266,176.5 -74.39600372314453,142.4429931640625 -105.29000091552734,115.86900329589844 C-142.92100524902344,83.5 -176.5,53.53099822998047 -176.5,0 C-176.5,-97.47799682617188 -97.47799682617188,-176.5 0,-176.5z"/></g></g></g></g></g></svg>