<svg xmlns="http://www.w3.org/2000/svg" xmlns:xlink="http://www.w3.org/1999/xlink" viewBox="0 0 430 430" width="430" height="430" preserveAspectRatio="xMidYMid meet" style="width: 100%; height: 100%; transform: translate3d(0px, 0px, 0px); content-visibility: visible;"><defs><clipPath id="__lottie_element_1294"><rect width="430" height="430" x="0" y="0"/></clipPath><clipPath id="__lottie_element_1296"><path d="M0,0 L430,0 L430,430 L0,430z"/></clipPath><filter id="__lottie_element_1302" x="-100%" y="-100%" width="300%" height="300%"><feGaussianBlur result="filter_result_0" stdDeviation="52.5 52.5" edgeMode="wrap"/></filter><g id="__lottie_element_1303"><g clip-path="url(#__lottie_element_1304)" transform="matrix(1,0,0,1,0,0)" opacity="1" style="display: block;"><g mask="url(#__lottie_element_1312_2)" style="display: block;"><g clip-path="url(#__lottie_element_1309)" transform="matrix(1,0,0,1,0,0)" opacity="1"><g mask="url(#__lottie_element_1326_2)" style="display: block;"><g transform="matrix(-0.7091703414916992,0.7050371766090393,-0.7050371766090393,-0.7091703414916992,155.73121643066406,274.1697082519531)" opacity="1"><path fill="rgb(255,0,0)" fill-opacity="1" d=" M-81.43800354003906,167.4949951171875 C10.00100040435791,166.25 83.75,91.73699951171875 83.75,0.004999999888241291 C83.75,-92.5009994506836 8.755999565124512,-167.4949951171875 -83.75,-167.4949951171875 C-77.9280014038086,-167.4949951171875 -173.36900329589844,-20.61400032043457 -178.7830047607422,64.802001953125 C-185.18499755859375,165.80299377441406 -84.68299865722656,166.14700317382812 -82.68399810791016,166.7169952392578"/><g opacity="1" transform="matrix(1,0,0,1,0,0)"><path stroke-linecap="round" stroke-linejoin="round" fill-opacity="0" class="primary" stroke="rgb(75,225,236)" stroke-opacity="1" stroke-width="12" d=" M-81.43800354003906,167.4949951171875 C10.00100040435791,166.25 83.75,91.73699951171875 83.75,0.004999999888241291 C83.75,-92.5009994506836 8.755999565124512,-167.4949951171875 -83.75,-167.4949951171875 C-77.9280014038086,-167.4949951171875 -173.36900329589844,-20.61400032043457 -178.7830047607422,64.802001953125 C-185.18499755859375,165.80299377441406 -84.68299865722656,166.14700317382812 -82.68399810791016,166.7169952392578"/></g></g></g></g></g><g transform="matrix(-0.7091703414916992,0.7050371766090393,-0.7050371766090393,-0.7091703414916992,244.81651306152344,185.59657287597656)" opacity="1" style="display: block;"><g opacity="1" transform="matrix(1,0,0,1,0,0)"><path stroke-linecap="round" stroke-linejoin="round" fill-opacity="0" class="secondary" stroke="rgb(203,94,238)" stroke-opacity="1" stroke-width="12" d=" M41.875,0 C88.13300323486328,0 125.625,-37.492000579833984 125.625,-83.75 C125.625,-130.00799560546875 88.13300323486328,-167.5 41.875,-167.5 C-50.63100051879883,-167.5 -125.625,-92.50599670410156 -125.625,0 C-125.625,92.50599670410156 -50.63100051879883,167.5 41.875,167.5 C-4.382999897003174,167.5 -41.875,130.00799560546875 -41.875,83.75 C-41.875,37.492000579833984 -4.382999897003174,0 41.875,0z"/></g></g><g transform="matrix(-0.7091703414916992,0.7050371766090393,-0.7050371766090393,-0.7091703414916992,274.1675720214844,274.5123291015625)" opacity="1" style="display: block;"><path fill="rgb(255,0,0)" fill-opacity="1" d=" M0,27.54400062561035 C-15.210000038146973,27.54400062561035 -27.54400062561035,15.210000038146973 -27.54400062561035,0 C-27.54400062561035,-15.210000038146973 -15.210000038146973,-27.54400062561035 0,-27.54400062561035 C15.210000038146973,-27.54400062561035 27.54400062561035,-15.210000038146973 27.54400062561035,0 C27.54400062561035,15.210000038146973 15.210000038146973,27.54400062561035 0,27.54400062561035z"/><g opacity="1" transform="matrix(1,0,0,1,0,0)"><path stroke-linecap="round" stroke-linejoin="round" fill-opacity="0" class="primary" stroke="rgb(75,225,236)" stroke-opacity="1" stroke-width="12" d=" M0,27.54400062561035 C-15.210000038146973,27.54400062561035 -27.54400062561035,15.210000038146973 -27.54400062561035,0 C-27.54400062561035,-15.210000038146973 -15.210000038146973,-27.54400062561035 0,-27.54400062561035 C15.210000038146973,-27.54400062561035 27.54400062561035,-15.210000038146973 27.54400062561035,0 C27.54400062561035,15.210000038146973 15.210000038146973,27.54400062561035 0,27.54400062561035z"/></g></g></g></g><clipPath id="__lottie_element_1304"><path d="M0,0 L430,0 L430,430 L0,430z"/></clipPath><mask id="__lottie_element_1303_1" mask-type="alpha"><use xmlns:ns1="http://www.w3.org/1999/xlink" ns1:href="#__lottie_element_1303"/></mask><clipPath id="__lottie_element_1309"><path d="M0,0 L430,0 L430,430 L0,430z"/></clipPath><g id="__lottie_element_1312"><g transform="matrix(-0.7091703414916992,0.7050371766090393,-0.7050371766090393,-0.7091703414916992,156.0738525390625,155.72628784179688)" opacity="1" style="display: block;"><path fill="rgb(255,0,0)" fill-opacity="1" d=" M0,27.54400062561035 C-15.210000038146973,27.54400062561035 -27.54400062561035,15.210000038146973 -27.54400062561035,0 C-27.54400062561035,-15.210000038146973 -15.210000038146973,-27.54400062561035 0,-27.54400062561035 C15.210000038146973,-27.54400062561035 27.54400062561035,-15.210000038146973 27.54400062561035,0 C27.54400062561035,15.210000038146973 15.210000038146973,27.54400062561035 0,27.54400062561035z"/><g opacity="1" transform="matrix(1,0,0,1,0,0)"><path stroke-linecap="round" stroke-linejoin="round" fill-opacity="0" class="secondary" stroke="rgb(203,94,238)" stroke-opacity="1" stroke-width="12" d=" M0,27.54400062561035 C-15.210000038146973,27.54400062561035 -27.54400062561035,15.210000038146973 -27.54400062561035,0 C-27.54400062561035,-15.210000038146973 -15.210000038146973,-27.54400062561035 0,-27.54400062561035 C15.210000038146973,-27.54400062561035 27.54400062561035,-15.210000038146973 27.54400062561035,0 C27.54400062561035,15.210000038146973 15.210000038146973,27.54400062561035 0,27.54400062561035z"/></g></g></g><filter id="__lottie_element_1321" filterUnits="objectBoundingBox" x="0%" y="0%" width="100%" height="100%"><feComponentTransfer in="SourceGraphic"><feFuncA type="table" tableValues="1.0 0.0"/></feComponentTransfer></filter><mask id="__lottie_element_1312_2" mask-type="alpha" maskUnits="userSpaceOnUse"><g filter="url(#__lottie_element_1321)"><rect width="430" height="430" x="0" y="0" fill="#ffffff" opacity="0"/><use xmlns:ns2="http://www.w3.org/1999/xlink" ns2:href="#__lottie_element_1312"/></g></mask><g id="__lottie_element_1326"><g transform="matrix(-0.7091703414916992,0.7050371766090393,-0.7050371766090393,-0.7091703414916992,244.81651306152344,185.59657287597656)" opacity="1" style="display: block;"><path fill="rgb(255,0,0)" fill-opacity="1" d=" M41.875,0 C88.13300323486328,0 125.625,-37.492000579833984 125.625,-83.75 C125.625,-130.00799560546875 88.13300323486328,-167.5 41.875,-167.5 C-50.63100051879883,-167.5 -125.625,-92.50599670410156 -125.625,0 C-125.625,92.50599670410156 -50.63100051879883,167.5 41.875,167.5 C-4.382999897003174,167.5 -41.875,130.00799560546875 -41.875,83.75 C-41.875,37.492000579833984 -4.382999897003174,0 41.875,0z"/><g opacity="1" transform="matrix(1,0,0,1,0,0)"/></g></g><filter id="__lottie_element_1329" filterUnits="objectBoundingBox" x="0%" y="0%" width="100%" height="100%"><feComponentTransfer in="SourceGraphic"><feFuncA type="table" tableValues="1.0 0.0"/></feComponentTransfer></filter><mask id="__lottie_element_1326_2" mask-type="alpha" maskUnits="userSpaceOnUse"><g filter="url(#__lottie_element_1329)"><rect width="430" height="430" x="0" y="0" fill="#ffffff" opacity="0"/><use xmlns:ns3="http://www.w3.org/1999/xlink" ns3:href="#__lottie_element_1326"/></g></mask></defs><g clip-path="url(#__lottie_element_1294)"><g clip-path="url(#__lottie_element_1296)" transform="matrix(1,0,0,1,0,0)" opacity="1" style="display: block;"><g mask="url(#__lottie_element_1303_1)" style="display: block;"><g filter="url(#__lottie_element_1302)" transform="matrix(2.114112138748169,-1.1360149383544922,1.1360149383544922,2.114112138748169,271.9410095214844,220.4600067138672)" opacity="1"><g class="design" opacity="1" transform="matrix(1,0,0,1,0,0)"><path class="primary" fill="rgb(75,225,236)" fill-opacity="1" d=" M0,-250 C137.97500610351562,-250 250,-137.97500610351562 250,0 C250,137.97500610351562 137.97500610351562,250 0,250 C-137.97500610351562,250 -250,137.97500610351562 -250,0 C-250,-137.97500610351562 -137.97500610351562,-250 0,-250z"/></g><g class="design" opacity="1" transform="matrix(1,0,0,1,113.24199676513672,-118.88400268554688)"><path class="secondary" fill="rgb(203,94,238)" fill-opacity="1" d=" M0,-176.5 C97.47799682617188,-176.5 176.5,-97.47799682617188 176.5,0 C176.5,97.47799682617188 97.47799682617188,176.5 0,176.5 C-43.948001861572266,176.5 -74.39600372314453,142.4429931640625 -105.29000091552734,115.86900329589844 C-142.92100524902344,83.5 -176.5,53.53099822998047 -176.5,0 C-176.5,-97.47799682617188 -97.47799682617188,-176.5 0,-176.5z"/></g></g></g></g></g></svg>