<svg xmlns="http://www.w3.org/2000/svg" xmlns:xlink="http://www.w3.org/1999/xlink" viewBox="0 0 430 430" width="430" height="430" preserveAspectRatio="xMidYMid meet" style="width: 100%; height: 100%; transform: translate3d(0px, 0px, 0px); content-visibility: visible;"><defs><clipPath id="__lottie_element_7"><rect width="430" height="430" x="0" y="0"/></clipPath><clipPath id="__lottie_element_9"><path d="M0,0 L430,0 L430,430 L0,430z"/></clipPath><filter id="__lottie_element_15" x="-100%" y="-100%" width="300%" height="300%"><feGaussianBlur result="filter_result_0" stdDeviation="52.5 52.5" edgeMode="wrap"/></filter><g id="__lottie_element_16"><g clip-path="url(#__lottie_element_17)" transform="matrix(1,0,0,1,0,0)" opacity="1" style="display: block;"><g transform="matrix(1,0,0,1,200.5,112.5)" opacity="1" style="display: block;"><g opacity="1" transform="matrix(1,0,0,1,0,0)"><path stroke-linecap="round" stroke-linejoin="round" fill-opacity="0" class="secondary" stroke="rgb(8,168,138)" stroke-opacity="1" stroke-width="12" d=" M0,67.5 C37.27899932861328,67.5 67.5,37.27899932861328 67.5,0 C67.5,-37.27899932861328 37.27899932861328,-67.5 0,-67.5 C-37.27899932861328,-67.5 -67.5,-37.27899932861328 -67.5,0 C-67.5,37.27899932861328 -37.27899932861328,67.5 0,67.5z"/></g></g><g mask="url(#__lottie_element_26_2)" style="display: block;"><g transform="matrix(1,0,0,1,200,282.5)" opacity="1"><g opacity="1" transform="matrix(1,0,0,1,0,0)"><path stroke-linecap="butt" stroke-linejoin="round" fill-opacity="0" class="primary" stroke="rgb(18,19,49)" stroke-opacity="1" stroke-width="12" d=" M-40.45500183105469,-67.5 C-98.19400024414062,-67.5 -145,-20.69300079345703 -145,37.04600143432617 C-145,37.04600143432617 -145,67.5 -145,67.5 C-145,67.5 145,67.5 145,67.5 C145,67.5 145,37.04600143432617 145,37.04600143432617 C145,-20.69300079345703 98.19300079345703,-67.5 40.45399856567383,-67.5 C40.45399856567383,-67.5 -40.45500183105469,-67.5 -40.45500183105469,-67.5z"/></g></g></g><g transform="matrix(1,0,0,1,320,315)" opacity="1" style="display: block;"><g opacity="1" transform="matrix(1,0,0,1,0,0)"><path stroke-linecap="butt" stroke-linejoin="miter" fill-opacity="0" stroke-miterlimit="4" class="secondary" stroke="rgb(8,168,138)" stroke-opacity="1" stroke-width="12" d=" M0,-70 C38.632999420166016,-70 70,-38.632999420166016 70,0 C70,38.632999420166016 38.632999420166016,70 0,70 C-38.632999420166016,70 -70,38.632999420166016 -70,0 C-70,-38.632999420166016 -38.632999420166016,-70 0,-70z"/></g></g><g transform="matrix(1,0,0,1,320,315)" opacity="1" style="display: block;"><g opacity="1" transform="matrix(1,0,0,1,0,0)"><path stroke-linecap="round" stroke-linejoin="round" fill-opacity="0" class="secondary" stroke="rgb(8,168,138)" stroke-opacity="1" stroke-width="12" d=" M-30,0 C-30,0 30,0 30,0 M0,30 C0,30 0,-30 0,-30"/></g></g></g></g><clipPath id="__lottie_element_17"><path d="M0,0 L430,0 L430,430 L0,430z"/></clipPath><mask id="__lottie_element_16_1" mask-type="alpha"><use xmlns:ns1="http://www.w3.org/1999/xlink" ns1:href="#__lottie_element_16"/></mask><g id="__lottie_element_26"><g transform="matrix(1,0,0,1,320,315)" opacity="1" style="display: block;"><g opacity="1" transform="matrix(1,0,0,1,0,0)"><path fill="rgb(255,255,255)" fill-opacity="1" d=" M0,-70 C38.632999420166016,-70 70,-38.632999420166016 70,0 C70,38.632999420166016 38.632999420166016,70 0,70 C-38.632999420166016,70 -70,38.632999420166016 -70,0 C-70,-38.632999420166016 -38.632999420166016,-70 0,-70z"/></g></g></g><filter id="__lottie_element_35" filterUnits="objectBoundingBox" x="0%" y="0%" width="100%" height="100%"><feComponentTransfer in="SourceGraphic"><feFuncA type="table" tableValues="1.0 0.0"/></feComponentTransfer></filter><mask id="__lottie_element_26_2" mask-type="alpha" maskUnits="userSpaceOnUse"><g filter="url(#__lottie_element_35)"><rect width="430" height="430" x="0" y="0" fill="#ffffff" opacity="0"/><use xmlns:ns2="http://www.w3.org/1999/xlink" ns2:href="#__lottie_element_26"/></g></mask></defs><g clip-path="url(#__lottie_element_7)"><g clip-path="url(#__lottie_element_9)" transform="matrix(1,0,0,1,0,0)" opacity="1" style="display: block;"><g mask="url(#__lottie_element_16_1)" style="display: block;"><g filter="url(#__lottie_element_15)" transform="matrix(-0.1674155443906784,-2.3941538333892822,2.3941538333892822,-0.1674155443906784,271.9410095214844,198.4600067138672)" opacity="1"><g class="design" opacity="1" transform="matrix(1,0,0,1,0,0)"><path class="primary" fill="rgb(75,225,236)" fill-opacity="1" d=" M0,-250 C137.97500610351562,-250 250,-137.97500610351562 250,0 C250,137.97500610351562 137.97500610351562,250 0,250 C-137.97500610351562,250 -250,137.97500610351562 -250,0 C-250,-137.97500610351562 -137.97500610351562,-250 0,-250z"/></g><g class="design" opacity="1" transform="matrix(1,0,0,1,113.24199676513672,-118.88400268554688)"><path class="secondary" fill="rgb(203,94,238)" fill-opacity="1" d=" M0,-176.5 C97.47799682617188,-176.5 176.5,-97.47799682617188 176.5,0 C176.5,97.47799682617188 97.47799682617188,176.5 0,176.5 C-43.948001861572266,176.5 -74.39600372314453,142.4429931640625 -105.29000091552734,115.86900329589844 C-142.92100524902344,83.5 -176.5,53.53099822998047 -176.5,0 C-176.5,-97.47799682617188 -97.47799682617188,-176.5 0,-176.5z"/></g></g></g></g></g></svg>