<svg xmlns="http://www.w3.org/2000/svg" xmlns:xlink="http://www.w3.org/1999/xlink" viewBox="0 0 430 430" width="430" height="430" preserveAspectRatio="xMidYMid meet" style="width: 100%; height: 100%; transform: translate3d(0px, 0px, 0px); content-visibility: visible;"><defs><clipPath id="__lottie_element_3186"><rect width="430" height="430" x="0" y="0"/></clipPath><clipPath id="__lottie_element_3188"><path d="M0,0 L430,0 L430,430 L0,430z"/></clipPath><filter id="__lottie_element_3194" x="-100%" y="-100%" width="300%" height="300%"><feGaussianBlur result="filter_result_0" stdDeviation="52.5 52.5" edgeMode="wrap"/></filter><g id="__lottie_element_3195"><g clip-path="url(#__lottie_element_3196)" transform="matrix(1,0,0,1,0,0)" opacity="1" style="display: block;"><g transform="matrix(1,0,0,1,216.21499633789062,322.7340087890625)" opacity="1" style="display: block;"><g opacity="1" transform="matrix(1,0,0,1,0,0)"><path stroke-linecap="round" stroke-linejoin="round" fill-opacity="0" class="primary" stroke="rgb(18,19,49)" stroke-opacity="1" stroke-width="12" d=" M82.9749984741211,-52.34400177001953 C93.8949966430664,-46.84400177001953 104.375,-40.17399978637695 114.23500061035156,-32.354000091552734 C124.58499908447266,-24.194000244140625 132.21499633789062,-6.644000053405762 132.21499633789062,4.815999984741211 C132.21499633789062,17.375999450683594 132.21499633789062,29.945999145507812 132.21499633789062,42.50600051879883 C132.21499633789062,54.01599884033203 124.58499908447266,55.26599884033203 114.23500061035156,47.09600067138672 C47.51499938964844,-5.834000110626221 -47.51499938964844,-5.834000110626221 -114.23500061035156,47.09600067138672 C-124.58499908447266,55.26599884033203 -132.2050018310547,54.01599884033203 -132.21499633789062,42.50600051879883 C-132.21499633789062,29.945999145507812 -132.21499633789062,17.375999450683594 -132.21499633789062,4.815999984741211 C-132.2050018310547,-6.644000053405762 -124.58499908447266,-24.194000244140625 -114.23500061035156,-32.354000091552734 C-104.84500122070312,-39.80400085449219 -94.8949966430664,-46.20399856567383 -84.54499816894531,-51.55400085449219"/></g></g><g transform="matrix(1,0,0,1,-35,-35)" opacity="1" style="display: block;"><g opacity="1" transform="matrix(1,0,0,1,325.5950012207031,277.7340087890625)"><path stroke-linecap="round" stroke-linejoin="round" fill-opacity="0" class="secondary" stroke="rgb(8,168,138)" stroke-opacity="1" stroke-width="12" d=" M-0.07199999690055847,0 C-0.07199999690055847,0 0.07199999690055847,0 0.07199999690055847,0"/></g><g opacity="1" transform="matrix(1,0,0,1,250,215.70700073242188)"><path stroke-linecap="round" stroke-linejoin="round" fill-opacity="0" class="primary" stroke="rgb(18,19,49)" stroke-opacity="1" stroke-width="12" d=" M-73.00800323486328,0 C-73.00800323486328,40.32099914550781 -40.32099914550781,73.00800323486328 0,73.00800323486328 C40.32099914550781,73.00800323486328 73.00800323486328,40.32099914550781 73.00800323486328,0 C73.00800323486328,-40.32099914550781 40.32099914550781,-73.00800323486328 0,-73.00800323486328 C-40.32099914550781,-73.00800323486328 -73.00800323486328,-40.32099914550781 -73.00800323486328,0z"/></g><g opacity="1" transform="matrix(1,0,0,1,250,215.70700073242188)"><path stroke-linecap="round" stroke-linejoin="round" fill-opacity="0" class="secondary" stroke="rgb(8,168,138)" stroke-opacity="1" stroke-width="12" d=" M-41.316001892089844,0 C-41.316001892089844,22.81800079345703 -22.81800079345703,41.316001892089844 0,41.316001892089844 C22.81800079345703,41.316001892089844 41.316001892089844,22.81800079345703 41.316001892089844,0 C41.316001892089844,-22.81800079345703 22.81800079345703,-41.316001892089844 0,-41.316001892089844 C-22.81800079345703,-41.316001892089844 -41.316001892089844,-22.81800079345703 -41.316001892089844,0z"/></g><g opacity="1" transform="matrix(1,0,0,1,250,214.2779998779297)"><path stroke-linecap="round" stroke-linejoin="round" fill-opacity="0" class="primary" stroke="rgb(18,19,49)" stroke-opacity="1" stroke-width="12" d=" M-124.05500030517578,0 C-124.05500030517578,68.51399993896484 -68.51399993896484,124.05500030517578 0,124.05500030517578 C68.51399993896484,124.05500030517578 124.05500030517578,68.51399993896484 124.05500030517578,0 C124.05500030517578,-68.51399993896484 68.51399993896484,-124.05500030517578 0,-124.05500030517578 C-68.51399993896484,-124.05500030517578 -124.05500030517578,-68.51399993896484 -124.05500030517578,0z"/></g></g></g></g><clipPath id="__lottie_element_3196"><path d="M0,0 L430,0 L430,430 L0,430z"/></clipPath><mask id="__lottie_element_3195_1" mask-type="alpha"><use xmlns:ns1="http://www.w3.org/1999/xlink" ns1:href="#__lottie_element_3195"/></mask></defs><g clip-path="url(#__lottie_element_3186)"><g clip-path="url(#__lottie_element_3188)" transform="matrix(1,0,0,1,0,0)" opacity="1" style="display: block;"><g mask="url(#__lottie_element_3195_1)" style="display: block;"><g filter="url(#__lottie_element_3194)" transform="matrix(-0.1674155443906784,-2.3941538333892822,2.3941538333892822,-0.1674155443906784,271.9410095214844,220.4600067138672)" opacity="1"><g class="design" opacity="1" transform="matrix(1,0,0,1,0,0)"><path class="primary" fill="rgb(75,225,236)" fill-opacity="1" d=" M0,-250 C137.97500610351562,-250 250,-137.97500610351562 250,0 C250,137.97500610351562 137.97500610351562,250 0,250 C-137.97500610351562,250 -250,137.97500610351562 -250,0 C-250,-137.97500610351562 -137.97500610351562,-250 0,-250z"/></g><g class="design" opacity="1" transform="matrix(1,0,0,1,113.24199676513672,-118.88400268554688)"><path class="secondary" fill="rgb(203,94,238)" fill-opacity="1" d=" M0,-176.5 C97.47799682617188,-176.5 176.5,-97.47799682617188 176.5,0 C176.5,97.47799682617188 97.47799682617188,176.5 0,176.5 C-43.948001861572266,176.5 -74.39600372314453,142.4429931640625 -105.29000091552734,115.86900329589844 C-142.92100524902344,83.5 -176.5,53.53099822998047 -176.5,0 C-176.5,-97.47799682617188 -97.47799682617188,-176.5 0,-176.5z"/></g></g></g></g></g></svg>